<?xml version="1.0" encoding="iso-8859-1"?>
<!-- Generator: Adobe Illustrator 16.0.0, SVG Export Plug-In . SVG Version: 6.00 Build 0)  -->
<!DOCTYPE svg PUBLIC "-//W3C//DTD SVG 1.1//EN" "http://www.w3.org/Graphics/SVG/1.1/DTD/svg11.dtd">
<svg version="1.1" id="Capa_1" xmlns="http://www.w3.org/2000/svg" xmlns:xlink="http://www.w3.org/1999/xlink" x="0px" y="0px"
	 width="35.576px" height="35.577px" viewBox="0 0 35.576 35.577" style="enable-background:new 0 0 35.576 35.577;"
	 xml:space="preserve">
<g>
	<path fill="white" d="M9.544,21.878c-0.035,0.074-0.093,0.136-0.181,0.17c-0.082,0.046-0.24,0.062-0.474,0.058L8.534,22.1l-0.018,1.237
		l2.311,0.033l-0.018,1.476l1.515,0.02l0.021-1.473l0.861,0.01c0.039,0.006,0.072-0.002,0.111,0l-0.018,1.477l1.51,0.021
		l0.026-1.598c0.253-0.05,0.476-0.109,0.669-0.181c0.525-0.203,0.938-0.502,1.229-0.897s0.441-0.828,0.447-1.306
		c0.006-0.399-0.082-0.762-0.269-1.084c-0.183-0.328-0.437-0.582-0.753-0.766c-0.223-0.13-0.54-0.257-0.956-0.363
		c0.392-0.131,0.707-0.293,0.948-0.492c0.24-0.198,0.429-0.434,0.557-0.692c0.13-0.27,0.199-0.549,0.203-0.842
		c0.004-0.401-0.107-0.777-0.344-1.123c-0.235-0.342-0.575-0.604-1.012-0.797c-0.172-0.074-0.379-0.129-0.603-0.176l0.022-1.578
		l-1.515-0.02l-0.022,1.472l-0.973-0.015l0.022-1.471l-1.515-0.024l-0.024,1.479l-2.313-0.035l-0.015,1.233l0.354,0.011
		c0.231-0.005,0.395,0.023,0.478,0.07c0.08,0.041,0.138,0.098,0.172,0.176c0.032,0.07,0.047,0.24,0.043,0.506l-0.067,4.992
		C9.6,21.639,9.581,21.807,9.544,21.878z M11.892,15.879l0.981,0.015c0.575,0.008,0.97,0.047,1.188,0.121
		c0.228,0.075,0.392,0.196,0.506,0.362c0.121,0.166,0.176,0.367,0.17,0.604c-0.002,0.229-0.066,0.429-0.193,0.6
		c-0.129,0.173-0.312,0.296-0.561,0.378c-0.245,0.085-0.627,0.122-1.139,0.117l-0.983-0.018L11.892,15.879z M11.845,19.376
		l1.158,0.015c0.51,0.008,0.883,0.061,1.131,0.155c0.247,0.103,0.43,0.244,0.553,0.429c0.121,0.188,0.179,0.41,0.176,0.674
		c-0.004,0.313-0.098,0.58-0.272,0.801c-0.178,0.219-0.392,0.361-0.643,0.43c-0.253,0.064-0.567,0.098-0.948,0.094l-0.652-0.014
		c-0.218,0.002-0.349-0.018-0.4-0.039c-0.047-0.02-0.083-0.064-0.104-0.125c-0.012-0.045-0.021-0.211-0.023-0.48L11.845,19.376z
		 M35.576,12.5c0,1.085-0.178,2.124-0.496,3.101c-1.729,7.75-17.288,17.529-17.288,17.529s-2.572-1.616-5.744-4.055
		c0.844,0.067,1.707,0.047,2.579-0.104c5.553-0.959,9.271-6.232,8.312-11.782c-0.959-5.551-6.235-9.271-11.783-8.312
		C5.77,9.809,2.123,14.805,2.789,20.17c-1.131-1.543-1.964-3.094-2.293-4.572C0.177,14.623,0,13.583,0,12.499
		c0-3.789,2.099-7.087,5.196-8.804C6.637,2.9,8.289,2.446,10.047,2.446c3.114,0,5.897,1.417,7.745,3.639
		c1.841-2.222,4.625-3.639,7.733-3.639c1.762,0,3.414,0.455,4.854,1.249C33.477,5.414,35.576,8.711,35.576,12.5z"/>
</g>
<g>
</g>
<g>
</g>
<g>
</g>
<g>
</g>
<g>
</g>
<g>
</g>
<g>
</g>
<g>
</g>
<g>
</g>
<g>
</g>
<g>
</g>
<g>
</g>
<g>
</g>
<g>
</g>
<g>
</g>
</svg>
